<svg width="32" height="32" viewBox="0 0 32 32" fill="none" xmlns="http://www.w3.org/2000/svg">
  <rect width="32" height="32" rx="6" fill="#2496ED"/>
  <path d="M7 16H10V19H7V16Z" fill="white"/>
  <path d="M11 16H14V19H11V16Z" fill="white"/>
  <path d="M15 16H18V19H15V16Z" fill="white"/>
  <path d="M19 16H22V19H19V16Z" fill="white"/>
  <path d="M23 16H26V19H23V16Z" fill="white"/>
  <path d="M11 12H14V15H11V12Z" fill="white"/>
  <path d="M15 12H18V15H15V12Z" fill="white"/>
  <path d="M19 12H22V15H19V12Z" fill="white"/>
  <path d="M15 8H18V11H15V8Z" fill="white"/>
  <path d="M26.5 16C27.5 16 28 16.5 28 17.5C28 18.5 27.5 19 26.5 19H26V16H26.5Z" fill="white"/>
</svg> 